<?xml version="1.0" encoding="utf-8"?>
<!-- Generator: Adobe Illustrator 19.0.0, SVG Export Plug-In . SVG Version: 6.00 Build 0)  -->
<svg version="1.1" id="Layer_1" xmlns="http://www.w3.org/2000/svg" xmlns:xlink="http://www.w3.org/1999/xlink" x="0px" y="0px"
	 viewBox="0 0 255 255" enable-background="new 0 0 255 255" xml:space="preserve">
<g>
	<g>
		<path fill="none" stroke="#FFFFFF" stroke-miterlimit="10" d="M127.5,6.1C57.6,6.1,1,60.5,1,127.5s56.6,121.4,126.5,121.4
			S254,194.5,254,127.5S197.4,6.1,127.5,6.1z M188.4,110.1c2.4,17.6-2.9,36.2-22.1,54.6c-19.4,18.6-39,23.6-57.5,21.1
			c17.6,31.2,34.2,57.1,18.7,57.1c-66.4,0-120.3-51.7-120.3-115.4c0-23.9,45.9,51,101.6,58.4c-19.6-34.7-40.6-76-20.1-95.6
			C109,70.8,152.1,91.2,188.4,110.1c-7.2-53.7-85.9-98.1-60.9-98.1c66.4,0,120.3,51.7,120.3,115.4
			C247.8,142.7,220.9,127,188.4,110.1z"/>
	</g>
</g>
</svg>
