<svg xmlns="http://www.w3.org/2000/svg" viewBox="0 0 128 128"><linearGradient id="a" gradientUnits="userSpaceOnUse" x1="70.252" y1="1237.476" x2="170.659" y2="1151.089" gradientTransform="matrix(.563 0 0 -.568 -29.215 707.817)"><stop offset="0" stop-color="#5A9FD4"/><stop offset="1" stop-color="#306998"/></linearGradient><path fill="url(#a)" d="M63.39 1.988c-4.22.02-8.25.38-11.8 1.007-10.45 1.846-12.345 5.71-12.345 12.837v9.41h24.693v3.138h-33.96c-7.177 0-13.46 4.313-15.427 12.52-2.267 9.406-2.367 15.276 0 25.097 1.756 7.31 5.948 12.52 13.125 12.52h8.49V67.233c0-8.15 7.052-15.34 15.427-15.34h24.665c6.866 0 12.346-5.654 12.346-12.548V15.833c0-6.693-5.646-11.72-12.346-12.837-4.244-.706-8.645-1.027-12.866-1.008zm-13.353 7.57c2.55 0 4.634 2.116 4.634 4.72 0 2.593-2.082 4.69-4.633 4.69-2.56 0-4.633-2.097-4.633-4.69 0-2.604 2.073-4.72 4.633-4.72z"/><linearGradient id="b" gradientUnits="userSpaceOnUse" x1="209.474" y1="1098.811" x2="173.62" y2="1149.537" gradientTransform="matrix(.563 0 0 -.568 -29.215 707.817)"><stop offset="0" stop-color="#FFD43B"/><stop offset="1" stop-color="#FFE873"/></linearGradient><path fill="url(#b)" d="M91.682 28.38v10.966c0 8.5-7.208 15.655-15.426 15.655H51.59c-6.755 0-12.345 5.784-12.345 12.55v23.515c0 6.69 5.818 10.628 12.346 12.547 7.817 2.297 15.313 2.713 24.666 0 6.216-1.8 12.346-5.423 12.346-12.547v-9.412H63.938v-3.138h37.012c7.176 0 9.852-5.005 12.348-12.52 2.578-7.734 2.467-15.173 0-25.095-1.774-7.145-5.16-12.52-12.348-12.52h-9.268zM77.81 87.927c2.56 0 4.633 2.097 4.633 4.692 0 2.6-2.074 4.718-4.634 4.718-2.55 0-4.634-2.117-4.634-4.72 0-2.594 2.083-4.69 4.633-4.69z"/><radialGradient id="c" cx="1825.678" cy="444.45" r="26.743" gradientTransform="matrix(0 -.24 -1.055 0 532.979 557.576)" gradientUnits="userSpaceOnUse"><stop offset="0" stop-color="#B8B8B8" stop-opacity=".498"/><stop offset="1" stop-color="#7F7F7F" stop-opacity="0"/></radialGradient><path opacity=".444" fill="url(#c)" d="M97.31 119.597c0 3.543-14.817 6.416-33.092 6.416-18.276 0-33.092-2.873-33.092-6.416 0-3.544 14.815-6.417 33.092-6.417 18.275 0 33.09 2.872 33.09 6.417z"/></svg>