<svg xmlns="http://www.w3.org/2000/svg" viewBox="0 0 128 128"><path fill="#0074BD" d="M47.617 98.12s-4.767 2.774 3.397 3.71c9.892 1.13 14.947.968 25.845-1.092 0 0 2.87 1.795 6.872 3.35-24.44 10.47-55.308-.606-36.115-5.968zM44.63 84.455s-5.35 3.96 2.822 4.805c10.567 1.09 18.91 1.18 33.354-1.6 0 0 1.993 2.025 5.132 3.13-29.542 8.64-62.446.68-41.31-6.335z"/><path fill="#EA2D2E" d="M69.802 61.27c6.025 6.936-1.58 13.17-1.58 13.17s15.29-7.89 8.27-17.776c-6.56-9.215-11.588-13.792 15.634-29.58 0 0-42.73 10.67-22.324 34.187z"/><path fill="#0074BD" d="M102.123 108.23s3.53 2.91-3.888 5.158c-14.102 4.272-58.706 5.56-71.094.17-4.45-1.937 3.9-4.624 6.527-5.19 2.74-.594 4.303-.486 4.303-.486-4.953-3.487-32.013 6.85-13.743 9.815 49.82 8.076 90.817-3.637 77.896-9.468zm-52.21-37.936s-22.687 5.39-8.034 7.348c6.187.828 18.517.638 30.01-.326 9.39-.79 18.813-2.474 18.813-2.474s-3.308 1.42-5.704 3.053c-23.043 6.06-67.545 3.238-54.732-2.958 10.832-5.24 19.644-4.643 19.644-4.643zM90.608 93.04c23.42-12.166 12.59-23.86 5.03-22.284-1.847.385-2.676.72-2.676.72s.688-1.08 2-1.543c14.953-5.255 26.45 15.503-4.823 23.725 0-.002.36-.327.47-.617z"/><path fill="#EA2D2E" d="M76.49 1.587S89.46 14.563 64.19 34.51c-20.266 16.006-4.62 25.13-.007 35.56C52.35 59.395 43.673 50 49.494 41.253 58.04 28.42 81.723 22.194 76.49 1.587z"/><path fill="#0074BD" d="M52.214 126.02c22.476 1.438 57-.8 57.817-11.435 0 0-1.57 4.032-18.576 7.23-19.186 3.613-42.854 3.192-56.887.875 0 0 2.875 2.38 17.647 3.33z"/></svg>