<svg xmlns="http://www.w3.org/2000/svg" viewBox="0 0 128 128"><path fill="#83CD29" d="M112.77 30.334L68.675 4.73c-2.78-1.585-6.402-1.585-9.205 0L14.9 30.333c-2.87 1.65-4.9 4.754-4.9 8.073V89.55c0 3.318 2.084 6.422 4.954 8.082l11.775 6.688c5.627 2.772 7.616 2.772 10.177 2.772 8.333 0 13.093-5.04 13.093-13.828v-50.49C50 42.06 49.63 41 48.93 41h-5.624C42.594 41 41 42.06 41 42.773v50.49c0 3.896-3.524 7.773-10.11 4.48L18.723 90.73C18.3 90.5 18 90.037 18 89.55V38.406c0-.482.555-.966.982-1.213l44.424-25.56c.415-.236 1.025-.236 1.44 0l43.88 25.554c.42.253.273.722.273 1.22v51.14c0 .49.182.964-.233 1.2L64.68 116.322c-.377.227-.846.227-1.26 0l-11.307-6.75c-.34-.197-.746-.268-1.073-.085-3.146 1.783-3.726 2.02-6.677 3.043-.726.254-1.797.693.41 1.93l14.798 8.754c1.418.82 3.028 1.246 4.648 1.246 1.642 0 3.25-.426 4.667-1.246l43.885-25.582c2.87-1.672 4.23-4.764 4.23-8.083V38.406c0-3.32-1.36-6.414-4.23-8.073zm-34.86 51.11c-11.726 0-14.31-3.234-15.17-9.065-.1-.63-.633-1.38-1.272-1.38h-5.73c-.71 0-1.28.86-1.28 1.566 0 7.466 4.06 16.512 23.453 16.512 14.04 0 22.09-5.455 22.09-15.11 0-9.57-6.468-12.083-20.083-13.885-13.762-1.82-15.16-2.738-15.16-5.962 0-2.657 1.184-6.202 11.374-6.202 9.106 0 12.462 1.954 13.843 8.09.118.578.645.992 1.24.992h5.754c.354 0 .692-.143.94-.396.24-.272.367-.613.335-.98-.89-10.567-7.912-15.492-22.112-15.492-12.63 0-20.166 5.334-20.166 14.275 0 9.698 7.497 12.378 19.622 13.577C90.09 69.406 91.22 71.526 91.22 74.38c0 4.954-3.98 7.065-13.31 7.065z"/></svg>