<svg xmlns="http://www.w3.org/2000/svg" width="24" height="24" viewBox="0 0 24 24"><g stroke="#661fb6" stroke-linecap="round" stroke-linejoin="round" stroke-miterlimit="10" fill="none"><path d="M19.5 18.5c0 .55-.449 1-1 1h-13c-.55 0-1-.45-1-1v-13c0-.549.45-1 1-1h13c.551 0 1 .451 1 1v13zM11.5.5v4M7.5.5v4M16.5.5v4M.5 12.5h4M.5 16.5h4M.5 7.5h4M12.5 23.5v-4M16.5 23.5v-4M7.5 23.5v-4M23.5 11.5h-4M23.5 7.5h-4M23.5 16.5h-4"/><path d="M17.5 15.5c0 1.1-.899 2-2 2h-7c-1.1 0-2-.9-2-2v-7c0-1.1.9-2 2-2h7c1.101 0 2 .9 2 2v7zM9.5 9.5h4M9.5 11.5h2M12.5 14.5h2"/></g></svg>
