<svg xmlns="http://www.w3.org/2000/svg" width="24" height="24" viewBox="0 0 24 24"><g stroke="#333" stroke-linecap="round" stroke-linejoin="round" stroke-miterlimit="10" fill="none"><path d="M18.959 17c0-5.969-4.126-3.531-7.5-3.531-3.375 0-7.5-2.375-7.5 3.531 0 1.933 1.567 3.5 3.5 3.5h8c1.934 0 3.5-1.567 3.5-3.5zM20.988 10.214l.032.022s2.646-4.571-.604-7.237c-2 0-5.059 3.304-5.059 3.304l.022.015c-2.49-.732-5.285-.737-7.781-.016-.015-.017-3.061-3.302-5.056-3.302-3.174 2.603-.729 7.012-.614 7.217-1.018 1.526-1.573 3.433-1.396 5.743.241 3.126 2.848 6.54 5.982 6.54h9.888c3.136 0 5.742-3.414 5.982-6.54.179-2.312-.376-4.22-1.396-5.746z"/><ellipse cx="14.979" cy="17" rx="1" ry="1.5"/><ellipse cx="7.979" cy="17" rx="1" ry="1.5"/></g></svg>
