<?xml version="1.0" encoding="utf-8"?>
<!-- Generator: Adobe Illustrator 19.2.1, SVG Export Plug-In . SVG Version: 6.00 Build 0)  -->
<svg version="1.1" id="Layer_1" xmlns="http://www.w3.org/2000/svg" xmlns:xlink="http://www.w3.org/1999/xlink" x="0px" y="0px"
	 viewBox="0 0 119.6 120" style="enable-background:new 0 0 119.6 120;" xml:space="preserve">
<style type="text/css">
	.st0{fill:#FFFFFF;}
	.st1{fill:#262262;}
	.st2{fill:url(#SVGID_1_);}
</style>
<path class="st0" d="M60,1.9c32.5,0,57.9,26.5,57.9,59.1S92.5,118.1,60,118.1S1.1,93.6,1.1,60.9C1.1,28.3,27.4,1.9,60,1.9z"/>
<path class="st1" d="M61.1,32c16.1,0,29.2,13.1,29.2,29.3S77.2,90.6,61.1,90.6c-16.1,0-29.2-13.1-29.2-29.3C31.9,45.2,45,32,61.1,32
	z"/>
<g>
	<g>
		
			<linearGradient id="SVGID_1_" gradientUnits="userSpaceOnUse" x1="-450.9508" y1="-343.9081" x2="-505.3936" y2="-237.0581" gradientTransform="matrix(1 0 0 -1 537.9722 -230.4831)">
			<stop  offset="0" style="stop-color:#6D3C97"/>
			<stop  offset="1" style="stop-color:#3EC7F4"/>
		</linearGradient>
		<path class="st2" d="M59.8,0C26.8,0,0,26.9,0,60s26.8,60,59.8,60s59.8-26.9,59.8-60S92.8,0,59.8,0z M88.6,51.4
			c1.1,8.7-1.4,17.9-10.4,27C69,87.6,59.7,90.1,51,88.9c8.3,15.4,16.2,28.2,8.8,28.2C28.4,117.1,2.9,91.5,2.9,60
			c0-11.8,21.7,25.2,48.1,28.8c-9.3-17.2-19.2-37.6-9.5-47.3C51,32,71.4,42.1,88.6,51.4C85.2,24.9,48,3,59.8,3
			c31.4,0,56.9,25.5,56.9,57.1C116.7,67.5,103.9,59.8,88.6,51.4z"/>
	</g>
</g>
</svg>
