<?xml version="1.0" encoding="utf-8"?>
<!-- Generator: Adobe Illustrator 19.2.1, SVG Export Plug-In . SVG Version: 6.00 Build 0)  -->
<svg version="1.1" id="Layer_1" xmlns="http://www.w3.org/2000/svg" xmlns:xlink="http://www.w3.org/1999/xlink" x="0px" y="0px"
	 viewBox="0 0 64 10" style="enable-background:new 0 0 64 10;" xml:space="preserve">
<style type="text/css">
	.st0{fill-rule:evenodd;clip-rule:evenodd;fill:#FFFFFF;}
	.st1{fill-rule:evenodd;clip-rule:evenodd;fill:#262262;}
	.st2{fill:#FFFFFF;}
	.st3{fill-rule:evenodd;clip-rule:evenodd;fill:url(#SVGID_1_);}
	.st4{fill:#686C86;}
</style>
<path class="st0" d="M4.6,0.1c2.5,0,4.5,2,4.5,4.6c0,2.5-2,4.4-4.5,4.4S0.1,7.2,0.1,4.7C0.1,2.2,2.1,0.1,4.6,0.1z"/>
<path class="st1" d="M4.7,2.5C6,2.5,7,3.5,7,4.7C7,6,6,7,4.7,7C3.5,7,2.5,6,2.5,4.7C2.5,3.5,3.5,2.5,4.7,2.5z"/>
<g>
	<path class="st2" d="M24,3.7l-0.1,0.5c-0.2-0.4-0.7-0.6-1.2-0.6c-0.8,0-1.4,0.5-1.7,1.2c-0.2-0.8-0.8-1.2-1.6-1.2
		c-1.1,0-2,0.9-2.1,2c-0.1-0.3-0.3-0.6-0.7-0.7c0.6-0.1,1.2-0.6,1.2-1.3c0-0.6-0.5-1.2-1.4-1.2h-2.5l-1.1,5.1h2.8
		c1.1,0,1.6-0.6,1.7-1.2c0.1,0.8,0.9,1.3,1.9,1.3c0.5,0,0.9-0.1,1.3-0.4l-0.3-0.7c-0.2,0.2-0.6,0.3-0.9,0.3c-0.7,0-1-0.5-1-0.8
		c0,0,0-0.1,0-0.1h2.6c0,0,0,0.1,0,0.1c0,1,0.6,1.5,1.4,1.5c0.4,0,0.8-0.2,1.1-0.5l-0.1,0.5h1L25,3.7H24z M15.5,6.4h-1.4l0.3-1.2
		h1.4c0.3,0,0.6,0.2,0.6,0.5C16.2,6.1,16,6.4,15.5,6.4z M15.9,4.3h-1.4l0.2-1.1h1.3c0.3,0,0.5,0.2,0.5,0.5C16.6,4,16.4,4.3,15.9,4.3
		z M20.2,5.2h-1.8c0.1-0.4,0.5-0.8,1-0.8C19.9,4.4,20.2,4.7,20.2,5.2C20.2,5.1,20.2,5.2,20.2,5.2z M23.5,6.2
		c-0.2,0.3-0.5,0.4-0.8,0.4c-0.5,0-0.8-0.3-0.8-0.9c0-0.7,0.5-1.3,1.1-1.3c0.4,0,0.7,0.2,0.9,0.4L23.5,6.2z"/>
	<path class="st2" d="M29.5,3.6c-0.6,0-1,0.3-1.3,0.7c0,0,0,0,0,0c0-0.1-0.3-0.7-1-0.7c-0.5,0-0.9,0.4-1.1,0.6l0.1-0.5h-1l-0.8,3.7
		h1L26,4.9c0.2-0.2,0.5-0.4,0.8-0.4c0.3,0,0.5,0.2,0.5,0.4c0,0.1,0,0.2,0,0.3l-0.5,2.2h1l0.5-2.5c0.2-0.2,0.5-0.4,0.8-0.4
		c0.3,0,0.5,0.2,0.5,0.4c0,0.1,0,0.2,0,0.2L29,7.4h1l0.6-2.5c0-0.1,0-0.2,0-0.3C30.6,3.9,30.1,3.6,29.5,3.6z"/>
</g>
<g>
	<g>
		<linearGradient id="SVGID_1_" gradientUnits="userSpaceOnUse" x1="6.7077" y1="8.7419" x2="2.5114" y2="0.5061">
			<stop  offset="0" style="stop-color:#6D3C97"/>
			<stop  offset="1" style="stop-color:#3EC7F4"/>
		</linearGradient>
		<path class="st3" d="M4.6,0C2.1,0,0,2.1,0,4.6c0,2.6,2.1,4.6,4.6,4.6s4.6-2.1,4.6-4.6C9.2,2.1,7.2,0,4.6,0z M6.8,4
			C6.9,4.6,6.7,5.3,6,6C5.3,6.7,4.6,6.9,3.9,6.8C4.6,8,5.2,9,4.6,9c-2.4,0-4.4-2-4.4-4.4c0-0.9,1.7,1.9,3.7,2.2
			C3.2,5.5,2.5,4,3.2,3.2C3.9,2.5,5.5,3.2,6.8,4c-0.3-2-3.1-3.7-2.2-3.7C7,0.2,9,2.2,9,4.6C9,5.2,8,4.6,6.8,4z"/>
	</g>
</g>
<g>
	<g>
		<path class="st4" d="M33.2,7.3l1-4.8h1.7c1,0,1.9,0.8,1.9,2.1c0,1.3-0.8,2.7-2.8,2.7H33.2z M35.1,6.4c1.1,0,1.7-0.8,1.7-1.8
			c0-0.7-0.5-1.2-1.1-1.2h-0.8l-0.6,3H35.1L35.1,6.4z"/>
		<path class="st4" d="M38,5.8c0-1.1,0.8-2.1,1.8-2.1c0.8,0,1.4,0.6,1.4,1.5c0,0.2,0,0.4-0.1,0.6h-2.4c0,0,0,0.1,0,0.1
			c0,0.3,0.3,0.7,0.9,0.7c0.3,0,0.6-0.1,0.8-0.3L40.8,7c-0.3,0.2-0.7,0.4-1.1,0.4C38.7,7.4,38,6.8,38,5.8z M40.5,5.2
			C40.5,5.2,40.5,5.2,40.5,5.2c0-0.4-0.2-0.8-0.7-0.8c-0.4,0-0.8,0.4-0.9,0.8H40.5z"/>
		<path class="st4" d="M42.4,7.3l-0.6-3.5h0.9L43,6.2l1.3-2.4h0.9l-2,3.5H42.4z"/>
		<path class="st4" d="M45,5.8c0-1.1,0.8-2.1,1.8-2.1c0.8,0,1.4,0.6,1.4,1.5c0,0.2,0,0.4-0.1,0.6h-2.4c0,0,0,0.1,0,0.1
			c0,0.3,0.3,0.7,0.9,0.7c0.3,0,0.6-0.1,0.8-0.3L47.8,7c-0.3,0.2-0.7,0.4-1.1,0.4C45.7,7.4,45,6.8,45,5.8z M47.5,5.2
			C47.5,5.2,47.5,5.2,47.5,5.2c0-0.4-0.2-0.8-0.7-0.8c-0.4,0-0.8,0.4-0.9,0.8H47.5z"/>
		<path class="st4" d="M48.5,7.3l1-4.8h0.8l-1,4.8H48.5z"/>
		<path class="st4" d="M50.3,5.8c0-1.1,0.8-2.1,1.8-2.1c1,0,1.6,0.7,1.6,1.6c0,1.1-0.8,2.1-1.8,2.1C50.9,7.4,50.3,6.7,50.3,5.8z
			 M52.9,5.4c0-0.5-0.3-0.8-0.7-0.8c-0.6,0-0.9,0.6-0.9,1.2c0,0.5,0.3,0.8,0.7,0.8C52.5,6.6,52.9,6,52.9,5.4z"/>
		<path class="st4" d="M54.9,6.8l-0.4,1.8h-0.8l1-4.8h0.8l-0.1,0.4c0.3-0.3,0.6-0.5,1-0.5c0.7,0,1.2,0.5,1.2,1.4
			c0,1-0.6,2.2-1.7,2.2C55.5,7.4,55.1,7.2,54.9,6.8z M56.7,5.4c0-0.5-0.3-0.8-0.7-0.8c-0.3,0-0.6,0.2-0.7,0.4L55,6.2
			c0.1,0.2,0.4,0.4,0.7,0.4C56.3,6.6,56.7,6,56.7,5.4z"/>
		<path class="st4" d="M57.9,5.8c0-1.1,0.8-2.1,1.8-2.1c0.8,0,1.4,0.6,1.4,1.5c0,0.2,0,0.4-0.1,0.6h-2.4c0,0,0,0.1,0,0.1
			c0,0.3,0.3,0.7,0.9,0.7c0.3,0,0.6-0.1,0.8-0.3L60.7,7c-0.3,0.2-0.7,0.4-1.1,0.4C58.6,7.4,57.9,6.8,57.9,5.8z M60.4,5.2
			C60.4,5.2,60.4,5.2,60.4,5.2c0-0.4-0.2-0.8-0.7-0.8c-0.4,0-0.8,0.4-0.9,0.8H60.4z"/>
		<path class="st4" d="M61.4,7.3l0.7-3.5H63l-0.1,0.5c0.3-0.3,0.6-0.5,1.1-0.5l-0.2,0.9c-0.1,0-0.2,0-0.3,0c-0.3,0-0.6,0.2-0.8,0.4
			l-0.5,2.3H61.4z"/>
	</g>
</g>
</svg>
