<?xml version="1.0" encoding="utf-8"?>
<!-- Generator: Adobe Illustrator 19.2.0, SVG Export Plug-In . SVG Version: 6.00 Build 0)  -->
<svg version="1.1" id="Layer_1" xmlns="http://www.w3.org/2000/svg" xmlns:xlink="http://www.w3.org/1999/xlink" x="0px" y="0px"
	 viewBox="0 0 231.2 67.3" style="enable-background:new 0 0 231.2 67.3;" xml:space="preserve">
<style type="text/css">
	.st0{fill:#FFFFFF;}
</style>
<g>
	<path class="st0" d="M145.9,18.2l-1.3,6.3c-3.2-4.8-8.9-7.5-15.3-7.5c-10.9,0-18.5,7.1-22.3,16.1C104.9,22.9,96.5,17,86,17
		c-14.8,0-26,11.4-27.5,25.5c-1.2-4.4-4.2-8.2-9-9.4c8-0.8,15.1-8.3,15.1-17.2C64.6,7.5,58.2,0,46.7,0H14.6L0,66.1h36.1
		c14.4,0,21.2-7.9,22.7-16c1.9,10.8,11,17.2,24.4,17.2c5.9,0,12.3-1.8,16.9-5l-4-8.6c-3,2.3-7.9,3.6-12.1,3.6
		c-8.8,0-13.1-5.8-13.1-9.9c0-0.3,0-1,0-1.2H104c0,0.4,0,0.9,0,1.3c0,12.7,7.3,19.8,18.2,19.8c5.7,0,10.3-2.4,14.4-7.1l-1.4,5.9
		h12.7l10.6-47.9H145.9z M35,53.9H16.8l3.4-15.4h17.6c4.5,0,7.2,2.8,7.2,6.7C45,50,41.4,53.9,35,53.9z M40.7,26.5H23l3.2-14.4H43
		c3.9,0,6.7,2.7,6.7,6.1C49.6,22.1,47.4,26.5,40.7,26.5z M96.3,37.7h-24c1.1-5.3,6.2-10.6,13-10.6c7.6,0,11,4.9,11,9.6
		C96.3,36.9,96.3,37.5,96.3,37.7z M138.9,50.5c-2.6,3.3-6.5,5.6-11,5.6c-6,0-10.6-4.4-10.6-11.2c0-8.8,5.8-16.7,14.1-16.7
		c5.1,0,9.1,2.4,11.2,5.6L138.9,50.5z"/>
	<path class="st0" d="M217.7,17.1c-7.3,0-12.8,4.2-16.6,8.8c0-0.1,0,0,0-0.2c0-1.8-3.8-8.6-13.2-8.6c-7,0-11.9,4.6-14.6,7.4l1.4-6.2
		h-12.6l-10.6,47.9h12.6l7.1-32.3c2.4-2.7,6-5.6,9.8-5.6c4.5,0,6.9,2.4,7,5.5c0,1.3-0.3,2.5-0.5,3.5l-6.4,28.9h12.7l7-32.3
		c2.5-2.8,6.1-5.6,10-5.6c3.7,0,6.8,2.1,6.8,5.7c0,1.2-0.3,2.6-0.4,3.2l-6.4,28.9h12.7l7.2-32.9c0.2-0.8,0.5-2.7,0.5-4
		C231.4,21.4,224.9,17.1,217.7,17.1z"/>
</g>
</svg>
