<svg xmlns="http://www.w3.org/2000/svg" width="24" height="24" viewBox="0 0 24 24"><g stroke="#333" stroke-linecap="round" stroke-linejoin="round" stroke-miterlimit="10" fill="none"><path d="M18.5 10c-1.398 0-2.66.576-3.568 1.5h-5.865c-.907-.924-2.17-1.5-3.567-1.5-2.762 0-5 2.238-5 5s2.238 5 5 5c1.397 0 2.66-.574 3.567-1.5h5.864c.908.926 2.17 1.5 3.568 1.5 2.761 0 5-2.238 5-5s-2.238-5-4.999-5z"/><circle cx="18.5" cy="13" r=".5"/><circle cx="20.5" cy="15" r=".5"/><circle cx="16.5" cy="15" r=".5"/><circle cx="18.5" cy="17" r=".5"/><path d="M5.5 12.5v4M7.5 14.5h-4M10 16.5h1M13 16.5h1"/><path d="M10.5 9.5h3v2h-3zM11.5 9.5v-3c0-1.65-1.35-3-3-3h-3"/></g></svg>
