<?xml version="1.0" encoding="utf-8"?>
<!-- Generator: Adobe Illustrator 20.0.0, SVG Export Plug-In . SVG Version: 6.00 Build 0)  -->
<svg version="1.1"
	 id="svg3036" inkscape:version="0.48.4 r9939" sodipodi:docname="lang-java.svg" xmlns:cc="http://creativecommons.org/ns#" xmlns:dc="http://purl.org/dc/elements/1.1/" xmlns:inkscape="http://www.inkscape.org/namespaces/inkscape" xmlns:rdf="http://www.w3.org/1999/02/22-rdf-syntax-ns#" xmlns:sodipodi="http://sodipodi.sourceforge.net/DTD/sodipodi-0.dtd" xmlns:svg="http://www.w3.org/2000/svg"
	 xmlns="http://www.w3.org/2000/svg" xmlns:xlink="http://www.w3.org/1999/xlink" x="0px" y="0px" viewBox="0 0 612 792"
	 style="enable-background:new 0 0 612 792;" xml:space="preserve">
<style type="text/css">
	.st0{fill:#F48580;}
	.st1{fill:#536DFE;}
	.st2{fill:#60A1D5;}
</style>
<sodipodi:namedview  bordercolor="#666666" borderopacity="1" gridtolerance="10" guidetolerance="10" id="namedview3048" inkscape:current-layer="g3781" inkscape:cx="91.179465" inkscape:cy="16.77634" inkscape:pageopacity="0" inkscape:pageshadow="2" inkscape:window-height="1017" inkscape:window-maximized="1" inkscape:window-width="1920" inkscape:window-x="-8" inkscape:window-y="-8" inkscape:zoom="3.6875" objecttolerance="10" pagecolor="#ffffff" showgrid="false">
	</sodipodi:namedview>
<g id="g3781" transform="matrix(0.20285809,0,0,0.20285809,0.39483063,0.2990379)">
	<path class="st0" d="M1294.6,773.9c-307.8,324.7,110.7,333.1-10.1,594.1C1651.9,1038.9,1207.1,1006.6,1294.6,773.9z"/>
	<path class="st0" d="M1608.3,1367.9c551.9-497.5-114.1-471.2,13.5-815.5C1181.3,997.2,1786.1,1007.1,1608.3,1367.9z"/>
	<polygon class="st1" points="1284.4,1368.1 1284.4,1368.1 1284.4,1368.1 	"/>
	<path class="st2" d="M1042.9,3348.8h927.3l235.4-1398.2H807.4L1042.9,3348.8z M1926,2183.7l-149.8,932.1H1237l-150-932.1H1926z"/>
	<path class="st2" d="M2093.6,1484.6H923.9c0,107.3-131.7,188.5-233,188.5v161h1631.2v-161v0
		C2220.9,1673.1,2093.6,1592,2093.6,1484.6z"/>
</g>
</svg>
